<svg width="42" height="46" viewBox="0 0 42 46" fill="none" xmlns="http://www.w3.org/2000/svg">
<g clip-path="url(#clip0_153_267)" filter="url(#filter0_d_153_267)">
<path d="M10.07 20.72V18.46C16.7536 17.5423 23.4937 17.0979 30.24 17.13C30.24 17.73 30.24 18.34 30.18 18.95C32.0976 18.099 34.1128 17.4877 36.18 17.13C34.8625 13.722 32.4618 10.8412 29.3471 8.93087C26.2324 7.02052 22.5764 6.1864 18.9414 6.55683C15.3064 6.92727 11.8938 8.48172 9.22852 10.9811C6.56325 13.4804 4.79297 16.7863 4.19 20.39L10.07 20.72Z" fill="#FDC305"/>
<path d="M31.24 24.23C30.08 25.51 29.85 25.43 29.85 27.68C29.85 28.59 29.85 32.58 29.85 36.86C32.1425 35.346 34.0245 33.2879 35.328 30.8694C36.6315 28.4509 37.3158 25.7474 37.32 23C37.3068 21.9591 37.1997 20.9216 37 19.9C34.9282 21.1295 32.9967 22.5814 31.24 24.23Z" fill="#FDC305"/>
<path d="M10.36 25.72C10.36 25.72 6.57 24.28 5.17 23.89C4.78707 23.7693 4.3961 23.6757 4 23.61C4.1084 26.496 4.96559 29.3041 6.48739 31.7586C8.00919 34.2131 10.1433 36.2296 12.68 37.61L10.36 25.72Z" fill="#FDC305"/>
<path d="M30.29 17.12C30.3307 11.5986 29.862 6.08528 28.89 0.65C28.89 0.65 28.75 -0.64 28 0.41C27.4109 1.65814 27.0067 2.98539 26.8 4.35C22.5418 4.07577 18.2675 4.18957 14.03 4.69C13.24 2 11.85 0.75 11.18 1C10.51 1.25 10.46 4.31 10.46 4.31L10.13 18.41C16.8113 17.506 23.548 17.0749 30.29 17.12Z" fill="#F06351"/>
<path d="M16.41 14C16.41 13.91 17.41 14.68 17.82 14.92C18.23 15.16 18.43 15.34 18.43 15.51C18.43 15.68 18.16 15.85 17.8 15.85C17.44 15.85 16.89 15.73 16.8 15.58H17.74H18.03C17.4207 15.1294 16.8757 14.5978 16.41 14Z" fill="black"/>
<path d="M23.89 14.11L22.8 15.44C22.8 15.5 22.63 15.79 22.98 15.74C23.3942 15.6783 23.8023 15.5812 24.2 15.45C24.31 15.45 24.27 15.26 24.09 15.28C23.91 15.3 23.4 15.33 23.09 15.39L23.93 14.13C23.93 14.13 24 14 23.89 14.11Z" fill="black"/>
<path d="M20.75 20.2C21.2135 19.9958 21.5967 19.6443 21.84 19.2C22.12 18.55 21.84 18.29 21.4 18.2C20.7979 18.0902 20.1765 18.2116 19.66 18.54C19.27 18.9 19.32 19.26 19.61 19.54C19.9613 19.8062 20.3442 20.0279 20.75 20.2Z" fill="black"/>
<path d="M20.35 21.45C20.2379 21.6785 20.0816 21.8825 19.89 22.05C19.6052 22.2791 19.2551 22.4122 18.89 22.43C18.3638 22.472 17.8406 22.3189 17.42 22C17.2222 21.8808 17.0436 21.7324 16.89 21.56C16.7895 21.4491 16.6669 21.3605 16.53 21.3C16.53 21.3 17.28 25.4 19.1 26.05C20.92 26.7 21.24 25.3 21.3 24.92C21.3601 23.7851 21.0742 22.6588 20.48 21.69C20.46 21.38 20.45 21.58 20.35 21.45Z" fill="#F06351"/>
<path d="M18.71 22.59C18.2453 22.5247 17.7989 22.3651 17.3982 22.1209C16.9975 21.8767 16.651 21.5531 16.38 21.17C16.3667 21.157 16.3561 21.1414 16.3489 21.1242C16.3417 21.1071 16.338 21.0886 16.338 21.07C16.338 21.0514 16.3417 21.0329 16.3489 21.0158C16.3561 20.9986 16.3667 20.983 16.38 20.97C16.393 20.9567 16.4086 20.9461 16.4258 20.9389C16.4429 20.9317 16.4614 20.928 16.48 20.928C16.4986 20.928 16.5171 20.9317 16.5342 20.9389C16.5514 20.9461 16.567 20.9567 16.58 20.97C17.0848 21.6642 17.843 22.1313 18.69 22.27C19.0217 22.245 19.3426 22.1413 19.6261 21.9674C19.9096 21.7934 20.1475 21.5544 20.32 21.27L20.46 21.08L20.56 21.29C20.56 21.29 20.93 22.05 21.56 22.09C22.19 22.13 22.61 21.68 23.17 20.81C23.183 20.7967 23.1986 20.7861 23.2158 20.7789C23.2329 20.7717 23.2514 20.768 23.27 20.768C23.2886 20.768 23.3071 20.7717 23.3242 20.7789C23.3414 20.7861 23.357 20.7967 23.37 20.81C23.4023 20.8306 23.4255 20.8629 23.4348 20.9C23.4441 20.9372 23.4388 20.9766 23.42 21.01C22.78 22.01 22.15 22.45 21.54 22.41C21.308 22.3763 21.0867 22.2904 20.8927 22.1587C20.6987 22.0271 20.5371 21.8531 20.42 21.65C20.2233 21.9245 19.9676 22.1514 19.6717 22.3141C19.3758 22.4767 19.0471 22.571 18.71 22.59Z" fill="black"/>
<path d="M30.24 18.92C28.4445 20.5437 26.7512 22.277 25.17 24.11C23.5986 25.9361 21.8238 27.5768 19.88 29C19.66 28.47 18.26 27.49 18.26 27.49C18.26 27.49 15.13 25.35 13.08 23.67C11.9741 22.7373 10.9287 21.7353 9.95 20.67L7.95 20.56C10.8402 24.7655 15.0702 27.8676 19.95 29.36C20.81 29.22 23.22 27.5 25.02 26.1C27.1389 24.2819 29.124 22.3134 30.96 20.21C31.4625 19.621 31.8493 18.9425 32.1 18.21C31 18.6 30.24 18.92 30.24 18.92Z" fill="#F06351"/>
</g>
<defs>
<filter id="filter0_d_153_267" x="0" y="0" width="41.32" height="45.61" filterUnits="userSpaceOnUse" color-interpolation-filters="sRGB">
<feFlood flood-opacity="0" result="BackgroundImageFix"/>
<feColorMatrix in="SourceAlpha" type="matrix" values="0 0 0 0 0 0 0 0 0 0 0 0 0 0 0 0 0 0 127 0" result="hardAlpha"/>
<feOffset dy="4"/>
<feGaussianBlur stdDeviation="2"/>
<feComposite in2="hardAlpha" operator="out"/>
<feColorMatrix type="matrix" values="0 0 0 0 0 0 0 0 0 0 0 0 0 0 0 0 0 0 0.25 0"/>
<feBlend mode="normal" in2="BackgroundImageFix" result="effect1_dropShadow_153_267"/>
<feBlend mode="normal" in="SourceGraphic" in2="effect1_dropShadow_153_267" result="shape"/>
</filter>
<clipPath id="clip0_153_267">
<rect width="33.32" height="37.61" fill="white" transform="translate(4)"/>
</clipPath>
</defs>
</svg>
